<svg width="142" height="149" viewBox="0 0 142 149" fill="none" xmlns="http://www.w3.org/2000/svg">
<rect x="12" y="33" width="90" height="70" fill="white"/>
<g opacity="0.95" filter="url(#filter0_ddd_360_304)">
<mask id="path-2-inside-1_360_304" fill="white">
<path fill-rule="evenodd" clip-rule="evenodd" d="M95.922 64.0135C95.9736 63.362 95.9999 62.7035 95.9999 62.0388C95.9999 48.4103 84.9519 37.3623 71.3234 37.3623C57.695 37.3623 46.647 48.4103 46.647 62.0388C46.647 75.6672 57.695 86.7152 71.3234 86.7152C71.9881 86.7152 72.6467 86.6889 73.2982 86.6374L95.922 64.0135Z"/>
</mask>
<path fill-rule="evenodd" clip-rule="evenodd" d="M95.922 64.0135C95.9736 63.362 95.9999 62.7035 95.9999 62.0388C95.9999 48.4103 84.9519 37.3623 71.3234 37.3623C57.695 37.3623 46.647 48.4103 46.647 62.0388C46.647 75.6672 57.695 86.7152 71.3234 86.7152C71.9881 86.7152 72.6467 86.6889 73.2982 86.6374L95.922 64.0135Z" fill="white"/>
<path d="M95.922 64.0135L99.4576 67.549L100.761 66.2457L100.906 64.4082L95.922 64.0135ZM73.2982 86.6374L73.6928 91.6218L75.5303 91.4763L76.8337 90.1729L73.2982 86.6374ZM90.9999 62.0388C90.9999 62.5716 90.9788 63.0985 90.9376 63.6188L100.906 64.4082C100.968 63.6255 101 62.8353 101 62.0388H90.9999ZM71.3234 42.3623C82.1904 42.3623 90.9999 51.1718 90.9999 62.0388H101C101 45.6489 87.7133 32.3623 71.3234 32.3623V42.3623ZM51.647 62.0388C51.647 51.1718 60.4564 42.3623 71.3234 42.3623V32.3623C54.9336 32.3623 41.647 45.6489 41.647 62.0388H51.647ZM71.3234 81.7152C60.4564 81.7152 51.647 72.9058 51.647 62.0388H41.647C41.647 78.4286 54.9336 91.7152 71.3234 91.7152V81.7152ZM72.9035 81.653C72.3832 81.6942 71.8563 81.7152 71.3234 81.7152V91.7152C72.12 91.7152 72.9102 91.6837 73.6928 91.6218L72.9035 81.653ZM76.8337 90.1729L99.4576 67.549L92.3865 60.478L69.7626 83.1018L76.8337 90.1729Z" fill="#16284E" mask="url(#path-2-inside-1_360_304)"/>
</g>
<mask id="path-4-inside-2_360_304" fill="white">
<path fill-rule="evenodd" clip-rule="evenodd" d="M95.7735 63.7886L73.0733 86.4888C70.2938 77.5846 70.7327 70.1008 75.0591 65.7744C79.3855 61.448 86.8693 61.0092 95.7735 63.7886Z"/>
</mask>
<path fill-rule="evenodd" clip-rule="evenodd" d="M95.7735 63.7886L73.0733 86.4888C70.2938 77.5846 70.7327 70.1008 75.0591 65.7744C79.3855 61.448 86.8693 61.0092 95.7735 63.7886Z" fill="white" fill-opacity="0.6"/>
<path d="M95.7735 63.7886L99.309 67.3241L105.154 61.4789L97.2633 59.0157L95.7735 63.7886ZM73.0733 86.4888L68.3004 87.9786L70.7635 95.8696L76.6088 90.0243L73.0733 86.4888ZM92.2379 60.253L69.5377 82.9532L76.6088 90.0243L99.309 67.3241L92.2379 60.253ZM77.8461 84.9989C75.2145 76.5682 76.3269 71.5777 78.5946 69.3099L71.5236 62.2389C65.1385 68.624 65.3732 78.6011 68.3004 87.9786L77.8461 84.9989ZM78.5946 69.3099C80.8624 67.0422 85.8528 65.9298 94.2836 68.5615L97.2633 59.0157C87.8858 56.0885 77.9086 55.8538 71.5236 62.2389L78.5946 69.3099Z" fill="#16284E" mask="url(#path-4-inside-2_360_304)"/>
<path d="M22.0029 62.1034C22.0029 60.7227 23.1222 59.6034 24.5029 59.6034H53.1627C54.5434 59.6034 55.6627 60.7227 55.6627 62.1034V91.457C55.6627 93.3684 53.605 94.5727 51.9385 93.6367L42.5055 88.3388C40.2246 87.0577 37.441 87.0577 35.1601 88.3388L25.7272 93.6367L26.9514 95.8165L25.7272 93.6367C24.0607 94.5727 22.0029 93.3683 22.0029 91.457V62.1034Z" fill="#FEFEFE" stroke="#16284E" stroke-width="5"/>
<path d="M23.21 70.6079H54.4555" stroke="#16284E" stroke-width="5" stroke-linecap="round" stroke-dasharray="10 10"/>
<defs>
<filter id="filter0_ddd_360_304" x="0.646973" y="0.362305" width="141.353" height="148.353" filterUnits="userSpaceOnUse" color-interpolation-filters="sRGB">
<feFlood flood-opacity="0" result="BackgroundImageFix"/>
<feColorMatrix in="SourceAlpha" type="matrix" values="0 0 0 0 0 0 0 0 0 0 0 0 0 0 0 0 0 0 127 0" result="hardAlpha"/>
<feOffset dy="11"/>
<feGaussianBlur stdDeviation="7.5"/>
<feColorMatrix type="matrix" values="0 0 0 0 0 0 0 0 0 0 0 0 0 0 0 0 0 0 0.2 0"/>
<feBlend mode="normal" in2="BackgroundImageFix" result="effect1_dropShadow_360_304"/>
<feColorMatrix in="SourceAlpha" type="matrix" values="0 0 0 0 0 0 0 0 0 0 0 0 0 0 0 0 0 0 127 0" result="hardAlpha"/>
<feOffset dy="9"/>
<feGaussianBlur stdDeviation="23"/>
<feColorMatrix type="matrix" values="0 0 0 0 0 0 0 0 0 0 0 0 0 0 0 0 0 0 0.12 0"/>
<feBlend mode="normal" in2="effect1_dropShadow_360_304" result="effect2_dropShadow_360_304"/>
<feColorMatrix in="SourceAlpha" type="matrix" values="0 0 0 0 0 0 0 0 0 0 0 0 0 0 0 0 0 0 127 0" result="hardAlpha"/>
<feOffset dy="24"/>
<feGaussianBlur stdDeviation="19"/>
<feColorMatrix type="matrix" values="0 0 0 0 0 0 0 0 0 0 0 0 0 0 0 0 0 0 0.14 0"/>
<feBlend mode="normal" in2="effect2_dropShadow_360_304" result="effect3_dropShadow_360_304"/>
<feBlend mode="normal" in="SourceGraphic" in2="effect3_dropShadow_360_304" result="shape"/>
</filter>
</defs>
</svg>

