<svg width="90" height="70" viewBox="0 0 90 70" fill="none" xmlns="http://www.w3.org/2000/svg">
<rect width="90" height="70" fill="white"/>
<path d="M24.875 35.375C27.4293 35.375 29.5 33.3043 29.5 30.75C29.5 28.1957 27.4293 26.125 24.875 26.125C22.3207 26.125 20.25 28.1957 20.25 30.75C20.25 33.3043 22.3207 35.375 24.875 35.375Z" fill="#16284E"/>
<path d="M38.75 67.75C38.4457 67.7518 38.144 67.6934 37.8622 67.5783C37.5805 67.4633 37.3242 67.2937 37.1081 67.0794L12.3644 42.3125C11.4958 41.4491 11.0052 40.2765 11 39.0519V21.5C11 20.2734 11.4873 19.097 12.3546 18.2296C13.222 17.3623 14.3984 16.875 15.625 16.875H33.1769C34.4015 16.8802 35.5741 17.3708 36.4375 18.2394L61.2044 42.9831C61.4211 43.1981 61.5932 43.4539 61.7106 43.7357C61.828 44.0175 61.8884 44.3197 61.8884 44.625C61.8884 44.9303 61.828 45.2325 61.7106 45.5143C61.5932 45.7961 61.4211 46.0519 61.2044 46.2669L40.3919 67.0794C40.1758 67.2937 39.9195 67.4633 39.6378 67.5783C39.356 67.6934 39.0543 67.7518 38.75 67.75ZM15.625 21.5V39.0519L38.75 62.1769L56.3019 44.625L33.1769 21.5H15.625Z" fill="#16284E"/>
<path d="M65.8294 29.1081L41.0625 4.36437C40.1991 3.49583 39.0265 3.00516 37.8019 3H20.25C19.0234 3 17.847 3.48728 16.9796 4.35463C16.1123 5.22199 15.625 6.39837 15.625 7.625V12.25H20.25V7.625H37.8019L60.9269 30.75L57.9206 33.7331L61.2044 37.0169L65.8294 32.3919C66.0461 32.1769 66.2182 31.9211 66.3356 31.6393C66.453 31.3575 66.5134 31.0553 66.5134 30.75C66.5134 30.4447 66.453 30.1425 66.3356 29.8607C66.2182 29.5789 66.0461 29.3231 65.8294 29.1081Z" fill="#16284E"/>
<path d="M70.9274 43.4915C70.4617 42.0698 68.0276 42.0036 67.4997 43.4915C64.7565 51.2843 58.8906 53.4019 58.8906 58.8943C58.8906 63.757 63.5078 67.6914 69.2135 67.6914C74.9193 67.6914 79.5365 63.757 79.5365 58.8943C79.5365 53.3743 73.6835 51.3199 70.9274 43.4915ZM69.2135 64.53C65.5917 64.53 62.6444 62.0478 62.6444 58.9976C62.6444 58.5609 63.0644 58.2072 63.5829 58.2072C64.1014 58.2072 64.5213 58.5609 64.5213 58.9976C64.5213 61.1765 66.6264 62.9493 69.2135 62.9493C69.732 62.9493 70.152 63.303 70.152 63.7397C70.152 64.1763 69.732 64.53 69.2135 64.53Z" fill="#16284E"/>
</svg>
