<svg width="90" height="70" viewBox="0 0 90 70" fill="none" xmlns="http://www.w3.org/2000/svg">
<g id="Group 2145">
<rect id="Rectangle 142" width="90" height="70" fill="black"/>
<g id="Group">
<g id="Vector">
<path d="M61.6349 34.752C61.6092 34.9002 62.1204 35.3582 62.877 36.036C63.2571 36.3766 63.6992 36.7727 64.1663 37.2129C64.9776 37.9794 65.9954 38.7067 67.0037 39.4274C68.4312 40.4475 69.8397 41.4542 70.617 42.5392C71.3641 43.5786 71.2071 45.4139 70.8119 46.4912C70.4979 47.3574 69.8862 48.1749 69.1607 48.8678C68.4786 49.5229 67.672 50.0859 66.914 50.4757C66.1507 50.8709 65.382 51.0983 64.7269 51.1037C64.7053 51.2065 64.6782 51.3148 64.6511 51.4177C64.4346 52.1485 63.969 52.7873 63.3843 53.3125C62.8592 53.7835 62.2258 54.1732 61.5924 54.4547C60.8994 54.7579 60.174 54.9312 59.5244 54.942C59.5027 55.1531 59.4594 55.3588 59.3998 55.5646C59.1833 56.2954 58.7177 56.9342 58.133 57.4593C57.6079 57.9303 56.9745 58.3201 56.3411 58.6016C55.41 59.0131 54.4138 59.1809 53.6343 59.0456C53.6072 59.3217 53.5531 59.5869 53.4773 59.836V59.8414C53.2445 60.6047 52.8006 61.2489 52.2321 61.7253C51.6637 62.2017 50.9707 62.5103 50.2345 62.6132C49.3412 62.7377 48.3938 62.559 47.5493 62.0068C47.3165 61.8553 47.062 61.6604 46.7643 61.4222L46.5965 61.2922L44.0791 59.3487L45.6491 57.3132L48.1664 59.2567L48.3343 59.3866C48.3744 59.4174 48.4135 59.4476 48.4516 59.4771C48.6345 59.6185 48.7965 59.7437 48.9622 59.8468C49.2546 60.0417 49.5794 60.1012 49.8826 60.0633C50.137 60.0254 50.3752 59.9172 50.5755 59.7493C50.7704 59.5869 50.9274 59.3595 51.0086 59.0943C51.1115 58.7424 51.0952 58.3039 50.9058 57.795C49.4622 55.7806 46.9563 53.5943 45.4663 52.2944C44.7379 51.6589 44.2523 51.2352 44.2523 51.147C44.2523 50.8783 45.6807 49.1493 45.8764 49.1493C46.0722 49.1493 47.7063 50.6327 49.6552 52.5383L49.6874 52.5698C50.1986 53.0704 50.7611 53.6213 51.3497 54.1462C51.4038 54.1949 51.4593 54.2436 51.5148 54.2923C51.5703 54.3411 51.6258 54.3898 51.6799 54.4385C51.6907 54.4493 51.7029 54.4602 51.7151 54.471C51.7273 54.4818 51.7395 54.4926 51.7503 54.5035C51.8911 54.628 52.0318 54.7579 52.1726 54.8878C52.231 54.9403 52.2893 54.9928 52.3476 55.0453C52.7648 55.4209 53.1804 55.7951 53.6126 56.1276C53.6831 56.1778 53.745 56.2233 53.8004 56.264C54.2045 56.5611 54.2667 56.6069 54.8523 56.4307C54.9549 56.3992 55.0632 56.3504 55.1772 56.299C55.2197 56.2799 55.263 56.2604 55.3071 56.2413C55.7077 56.068 56.0975 55.8244 56.4115 55.5429C56.6659 55.3101 56.8608 55.0665 56.9312 54.8283C56.9853 54.6388 56.9474 54.4114 56.7634 54.157C55.348 52.1882 52.3669 49.441 50.4379 47.6634C49.423 46.7281 48.6994 46.0612 48.6483 45.9174C48.4999 45.5 49.9394 43.9748 50.3536 43.9847C50.7678 43.9945 53.6667 46.8972 56.3574 49.734C57.0882 50.454 58.1763 51.4393 58.9613 52.0511C59.0118 52.0872 59.0596 52.1253 59.1064 52.1625C59.3259 52.3372 59.5247 52.4954 59.8817 52.3705C60.0657 52.3055 60.2985 52.2135 60.5584 52.0998C60.959 51.9266 61.3488 51.6829 61.6628 51.4014C61.9172 51.174 62.1121 50.925 62.1825 50.6868C62.2366 50.4973 62.1987 50.27 62.0147 50.0101C60.7811 48.2943 58.143 45.926 56.1277 44.1168C54.6139 42.7579 53.4516 41.7145 53.4999 41.5C53.6126 41 54.8347 39.8378 55.6048 39.8378C56.0064 39.8378 59.4053 43.178 62.1717 46.1935C62.395 46.4158 62.6087 46.6496 62.8178 46.8784C63.7387 47.886 64.5691 48.7946 65.7339 48.1857C66.2861 47.8988 66.8762 47.4873 67.385 47.0001C68.2296 46.1935 69.2473 44.8509 68.4353 43.779C65.6256 41.0775 60.2281 36.5354 60.2119 36.5246L61.6349 34.752ZM61.6349 34.752L61.6663 34.7129C61.6482 34.7216 61.6379 34.7347 61.6349 34.752Z" fill="white"/>
<path d="M61.6349 34.752C61.6092 34.9002 62.1204 35.3582 62.877 36.036C63.2571 36.3766 63.6992 36.7727 64.1663 37.2129C64.9776 37.9794 65.9954 38.7067 67.0037 39.4274C68.4312 40.4475 69.8397 41.4542 70.617 42.5392C71.3641 43.5786 71.2071 45.4139 70.8119 46.4912C70.4979 47.3574 69.8862 48.1749 69.1607 48.8678C68.4786 49.5229 67.672 50.0859 66.914 50.4757C66.1507 50.8709 65.382 51.0983 64.7269 51.1037C64.7053 51.2065 64.6782 51.3148 64.6511 51.4177C64.4346 52.1485 63.969 52.7873 63.3843 53.3125C62.8592 53.7835 62.2258 54.1732 61.5924 54.4547C60.8994 54.7579 60.174 54.9312 59.5244 54.942C59.5027 55.1531 59.4594 55.3588 59.3998 55.5646C59.1833 56.2954 58.7177 56.9342 58.133 57.4593C57.6079 57.9303 56.9745 58.3201 56.3411 58.6016C55.41 59.0131 54.4138 59.1809 53.6343 59.0456C53.6072 59.3217 53.5531 59.5869 53.4773 59.836V59.8414C53.2445 60.6047 52.8006 61.2489 52.2321 61.7253C51.6637 62.2017 50.9707 62.5103 50.2345 62.6132C49.3412 62.7377 48.3938 62.559 47.5493 62.0068C47.3165 61.8553 47.062 61.6604 46.7643 61.4222L46.5965 61.2922L44.0791 59.3487L45.6491 57.3132L48.1664 59.2567L48.3343 59.3866C48.3744 59.4174 48.4135 59.4476 48.4516 59.4771C48.6345 59.6185 48.7965 59.7437 48.9622 59.8468C49.2546 60.0417 49.5794 60.1012 49.8826 60.0633C50.137 60.0254 50.3752 59.9172 50.5755 59.7493C50.7704 59.5869 50.9274 59.3595 51.0086 59.0943C51.1115 58.7424 51.0952 58.3039 50.9058 57.795C49.4622 55.7806 46.9563 53.5943 45.4663 52.2944C44.7379 51.6589 44.2523 51.2352 44.2523 51.147C44.2523 50.8783 45.6807 49.1493 45.8764 49.1493C46.0722 49.1493 47.7063 50.6327 49.6552 52.5383L49.6874 52.5698C50.1986 53.0704 50.7611 53.6213 51.3497 54.1462C51.4038 54.1949 51.4593 54.2436 51.5148 54.2923C51.5703 54.3411 51.6258 54.3898 51.6799 54.4385C51.6907 54.4493 51.7029 54.4602 51.7151 54.471C51.7273 54.4818 51.7395 54.4926 51.7503 54.5035C51.8911 54.628 52.0318 54.7579 52.1726 54.8878C52.231 54.9403 52.2893 54.9928 52.3476 55.0453C52.7648 55.4209 53.1804 55.7951 53.6126 56.1276C53.6831 56.1778 53.745 56.2233 53.8004 56.264C54.2045 56.5611 54.2667 56.6069 54.8523 56.4307C54.9549 56.3992 55.0632 56.3504 55.1772 56.299C55.2197 56.2799 55.263 56.2604 55.3071 56.2413C55.7077 56.068 56.0975 55.8244 56.4115 55.5429C56.6659 55.3101 56.8608 55.0665 56.9312 54.8283C56.9853 54.6388 56.9474 54.4114 56.7634 54.157C55.348 52.1882 52.3669 49.441 50.4379 47.6634C49.423 46.7281 48.6994 46.0612 48.6483 45.9174C48.4999 45.5 49.9394 43.9748 50.3536 43.9847C50.7678 43.9945 53.6667 46.8972 56.3574 49.734C57.0882 50.454 58.1763 51.4393 58.9613 52.0511C59.0118 52.0872 59.0596 52.1253 59.1064 52.1625C59.3259 52.3372 59.5247 52.4954 59.8817 52.3705C60.0657 52.3055 60.2985 52.2135 60.5584 52.0998C60.959 51.9266 61.3488 51.6829 61.6628 51.4014C61.9172 51.174 62.1121 50.925 62.1825 50.6868C62.2366 50.4973 62.1987 50.27 62.0147 50.0101C60.7811 48.2943 58.143 45.926 56.1277 44.1168C54.6139 42.7579 53.4516 41.7145 53.4999 41.5C53.6126 41 54.8347 39.8378 55.6048 39.8378C56.0064 39.8378 59.4053 43.178 62.1717 46.1935C62.395 46.4158 62.6087 46.6496 62.8178 46.8784C63.7387 47.886 64.5691 48.7946 65.7339 48.1857C66.2861 47.8988 66.8762 47.4873 67.385 47.0001C68.2296 46.1935 69.2473 44.8509 68.4353 43.779C65.6256 41.0775 60.2281 36.5354 60.2119 36.5246L61.6349 34.752ZM61.6349 34.752L61.6663 34.7129C61.6482 34.7216 61.6379 34.7347 61.6349 34.752Z" stroke="white"/>
</g>
<path id="Vector_2" d="M86.5649 37.381L86.5645 37.3797L78.5977 9.25757L78.5976 9.25715C78.5969 9.25164 78.5958 9.24381 78.5943 9.23392C78.5913 9.21417 78.5865 9.18613 78.5793 9.15191C78.5651 9.08363 78.5413 8.98983 78.503 8.8876C78.4276 8.68613 78.2901 8.43652 78.0428 8.29702C77.7973 8.15853 77.5029 8.16187 77.2822 8.19352C77.1699 8.20961 77.0722 8.23368 77.0026 8.25372C76.9677 8.26376 76.9396 8.27284 76.92 8.27951L76.8971 8.28753L76.8933 8.28894L66.7002 11.0861L66.7002 11.0861L66.7 11.0862L66.6994 11.0863L66.6981 11.0866L66.6976 11.0868L66.6911 11.0885L66.6671 11.095C66.6466 11.1008 66.6173 11.1094 66.5817 11.1208C66.5106 11.1435 66.4133 11.1777 66.3091 11.2236C66.1071 11.3124 65.8538 11.4555 65.734 11.6627C65.6125 11.8728 65.6172 12.1678 65.6434 12.3901C65.6569 12.5048 65.677 12.6075 65.6938 12.6814C65.7022 12.7184 65.7098 12.7485 65.7153 12.7694L65.722 12.7938L65.7238 12.8004L65.7243 12.802L65.7244 12.8022L65.7245 12.8027L65.7246 12.8029L65.7246 12.803L66.1732 14.3856C61.3566 14.7987 56.6604 13.776 52.2583 12.8174L52.2102 12.8069L52.2101 12.8069L52.2037 12.8055C47.7825 11.8408 43.6327 10.9352 39.8461 11.4589C36.0468 11.9844 32.6209 13.9469 29.6427 18.6929L29.6427 18.693C28.8409 19.9742 28.0012 21.3781 27.3109 22.754C26.6211 24.1287 26.0774 25.4816 25.8718 26.6599C25.5914 28.2527 25.7554 29.598 26.6617 30.4222C27.565 31.2438 29.1703 31.5136 31.6836 31.0522C34.7915 30.4842 36.7091 28.9202 38.4797 27.4745C39.4835 26.6552 40.4229 25.8906 41.5438 25.4561C42.6582 25.0241 43.9589 24.9165 45.6861 25.4289C46.603 25.8075 47.0955 26.0115 47.5381 26.2701C47.9804 26.5284 48.375 26.8425 49.0928 27.4465L49.0929 27.4466C51.4769 29.4464 55.5028 32.9161 58.9501 35.9005C61.4139 38.0335 63.583 39.9193 64.6443 40.842C65.0608 41.2041 65.3067 41.4178 65.3329 41.4401C65.3333 41.4404 65.3336 41.4407 65.3339 41.441L67.6817 43.5075L67.6811 43.5082L67.6922 43.5155L67.7478 43.4324L67.6922 43.5156L67.6923 43.5156L67.6924 43.5157L67.6928 43.516L67.6941 43.5168L67.6985 43.5197L67.7142 43.5296C67.7278 43.5379 67.7474 43.5496 67.7722 43.5635C67.822 43.5913 67.8933 43.6281 67.9809 43.6648C68.1552 43.7379 68.3985 43.8128 68.6664 43.8128C68.8179 43.8128 68.9548 43.7853 69.0531 43.7584C69.1025 43.7448 69.1428 43.7312 69.171 43.7209C69.1851 43.7157 69.1963 43.7113 69.2041 43.7081L69.2134 43.7043L69.216 43.7032L69.2169 43.7028L69.2171 43.7027L69.2173 43.7026L69.2173 43.7026L69.2174 43.7027L69.2223 43.7002L73.8529 41.3477C73.8557 41.3517 73.8586 41.3559 73.8615 41.3602C73.8988 41.4135 73.9523 41.4861 74.0171 41.5632C74.1432 41.7133 74.3247 41.8961 74.5217 41.972C74.6994 42.0405 74.9318 42.0383 75.1077 42.0232C75.1979 42.0154 75.278 42.0038 75.3354 41.9941C75.3642 41.9893 75.3875 41.9849 75.4037 41.9817L75.4225 41.9779L75.4277 41.9768L75.4291 41.9765L75.4295 41.9764L75.4297 41.9764L75.4297 41.9764L75.4298 41.9765L75.4354 41.9749L85.6077 39.0948L85.6078 39.0949L85.6115 39.0937L85.5805 38.9986L85.6115 39.0937L85.6116 39.0937L85.6117 39.0936L85.6123 39.0935L85.6141 39.0929L85.6206 39.0906L85.6445 39.0823C85.6536 39.0791 85.6643 39.0752 85.6765 39.0706C85.6919 39.0649 85.7098 39.058 85.7296 39.0501C85.8004 39.022 85.8971 38.9805 86.0001 38.9266C86.2001 38.8221 86.4481 38.6593 86.5577 38.4416C86.6586 38.2411 86.6548 37.968 86.6329 37.7618C86.6216 37.6556 86.6047 37.561 86.5907 37.4929C86.5886 37.4825 86.5865 37.4727 86.5845 37.4636C86.58 37.4428 86.5759 37.4253 86.5727 37.4119L86.5671 37.3895L86.5655 37.3834L86.5651 37.3817L86.565 37.3812L86.5649 37.3811L86.5649 37.381ZM67.1587 39.3512C67.1518 39.3451 67.1442 39.3401 67.136 39.3362C67.1309 39.3317 67.1244 39.3261 67.1166 39.3192L67.0157 39.2315L66.6342 38.8994C66.3045 38.6124 65.8301 38.1995 65.2472 37.6927C64.0815 36.679 62.4819 35.2895 60.7382 33.7794C57.2513 30.7593 53.1877 27.2561 50.8672 25.312C49.9988 24.5843 49.5096 24.1946 48.9593 23.8731C48.4106 23.5525 47.8032 23.3009 46.7035 22.8454L46.6997 22.8438L46.6986 22.8434L46.6445 22.8217L46.6445 22.8217L46.6415 22.8206L46.5224 22.7773L46.5225 22.7771L46.5172 22.7755C44.0906 22.0421 42.2856 22.1489 40.7612 22.7097C39.2456 23.2673 38.0158 24.2714 36.7386 25.3142L36.7291 25.3219L36.7291 25.322L36.7266 25.324C35.1995 26.5695 33.5886 27.8834 31.1874 28.3219L31.1874 28.3219C30.0537 28.5298 29.3659 28.4646 28.9874 28.2402C28.8023 28.1305 28.689 27.9816 28.6307 27.7998C28.5716 27.6153 28.5676 27.3913 28.6133 27.133L28.6133 27.1329C28.7784 26.1926 29.2546 25.0381 29.8767 23.8208C30.498 22.6053 31.2608 21.3346 31.9939 20.1633C31.9982 20.1565 32.0016 20.1492 32.0041 20.1417C34.4633 16.2235 37.3881 14.6413 40.6771 14.2464C43.9816 13.8495 47.6586 14.6498 51.6207 15.5143L51.6208 15.5143L51.6645 15.5238C56.4059 16.5548 61.5108 17.6648 66.9437 17.0896L73.0483 38.6382L68.8023 40.7952L67.1587 39.3512ZM75.9796 38.9538C75.9565 38.9451 75.9193 38.9195 75.8686 38.8632C75.8193 38.8085 75.7635 38.7322 75.7019 38.6336C75.5786 38.4366 75.4372 38.16 75.2806 37.8125C74.9678 37.1183 74.5991 36.1521 74.1983 34.9999C73.3971 32.6961 72.4703 29.6568 71.609 26.581C70.7476 23.5052 69.9521 20.3947 69.4131 17.9486C69.1436 16.7253 68.9385 15.6698 68.8214 14.8684C68.7628 14.4676 68.7265 14.1322 68.7148 13.8723C68.7029 13.6066 68.7179 13.4359 68.7504 13.3527C68.9006 12.9681 69.3341 12.6076 69.9571 12.2923C70.5749 11.9796 71.3584 11.7218 72.1755 11.5315C72.9921 11.3413 73.8385 11.2193 74.5803 11.1768C75.3254 11.1342 75.9542 11.1723 76.3416 11.2949C76.3697 11.3038 76.4117 11.3299 76.4674 11.3864C76.5218 11.4415 76.5829 11.5191 76.6502 11.6197C76.7847 11.8208 76.9378 12.1044 77.1063 12.4614C77.4429 13.1747 77.8355 14.1692 78.2585 15.3537C79.1044 17.7219 80.0689 20.8409 80.9474 23.9685C81.8259 27.0961 82.6177 30.2303 83.1185 32.629C83.3689 33.8287 83.5461 34.842 83.6251 35.5775C83.6646 35.9459 83.6791 36.2406 83.667 36.4529C83.6609 36.5592 83.6483 36.6405 83.6309 36.6983C83.6126 36.7589 83.5937 36.7782 83.5872 36.7825C83.0278 37.1529 81.475 37.8318 79.8756 38.3504C79.0775 38.6092 78.2724 38.8266 77.5787 38.9452C77.2319 39.0046 76.9148 39.0389 76.6416 39.0418C76.3671 39.0448 76.1434 39.016 75.9796 38.9538Z" fill="white" stroke="white" stroke-width="0.2" stroke-linejoin="round"/>
<path id="Vector_3" d="M23.778 10.8082L13.5949 8.01374L13.5932 8.01306C13.5882 8.01106 13.5811 8.00828 13.572 8.0049C13.5539 7.99814 13.528 7.98895 13.4958 7.97882C13.4314 7.9586 13.3408 7.93434 13.2355 7.91813C13.0278 7.88612 12.7489 7.88337 12.5039 8.02154C12.2593 8.15952 12.1066 8.40599 12.0162 8.60589C11.9703 8.70734 11.9387 8.8005 11.9187 8.86836C11.9086 8.90236 11.9014 8.9302 11.8966 8.9498L11.8912 8.9728L11.8901 8.97778L3.92205 37.1041L3.92124 37.1039L3.91934 37.1168L4.01827 37.1314L3.91933 37.1168L3.91932 37.1169L3.91929 37.1171L3.91922 37.1176L3.91897 37.1194L3.91812 37.1256L3.91532 37.1484C3.91306 37.168 3.91017 37.1962 3.90752 37.2311C3.90221 37.301 3.89777 37.3987 3.90122 37.5108C3.90805 37.7324 3.94597 38.0216 4.07891 38.2614C4.21431 38.5056 4.41884 38.6441 4.5859 38.7211C4.66961 38.7597 4.74506 38.7834 4.79994 38.7975C4.82744 38.8045 4.84994 38.8093 4.86595 38.8123C4.87395 38.8138 4.88035 38.8148 4.88495 38.8155L4.88505 38.8156L15.0477 41.6929L15.0525 41.6946L15.0757 41.7026C15.0957 41.7092 15.1243 41.7182 15.1598 41.7281C15.2307 41.748 15.3301 41.7719 15.4442 41.7879C15.6685 41.8192 15.967 41.8225 16.2149 41.6851C16.4657 41.5461 16.6016 41.2973 16.6746 41.0964C16.7116 40.9945 16.7338 40.9011 16.7469 40.8331C16.7534 40.799 16.7577 40.7711 16.7604 40.7514C16.7617 40.7419 16.7626 40.7343 16.7632 40.7288L17.0415 39.7476C17.8556 40.0039 18.9322 40.421 19.8396 41.0395C20.785 41.6838 21.5305 42.535 21.6268 43.6365C21.6316 43.6915 21.6801 43.7322 21.735 43.7274L24.3065 43.5055C24.333 43.5032 24.3574 43.4905 24.3745 43.4702C24.3916 43.4499 24.3999 43.4236 24.3976 43.3971C24.2291 41.4696 23.0965 40.0552 21.7417 39.0402C20.4253 38.0539 18.8909 37.4379 17.7996 37.0871L23.5013 16.9595C25.7118 17.0284 30.8052 17.0598 35.0446 16.0993C35.0983 16.0871 35.1321 16.0337 35.12 15.9799L34.557 13.4679C34.5512 13.442 34.5353 13.4195 34.5129 13.4053C34.4905 13.3911 34.4633 13.3864 34.4374 13.3923C30.8788 14.1972 26.6138 14.2489 24.278 14.2045L24.755 12.5277L24.7593 12.5174C24.7638 12.5062 24.7697 12.4904 24.7761 12.4702C24.789 12.43 24.8039 12.3722 24.8141 12.2988C24.8344 12.1516 24.8353 11.9423 24.7626 11.6856C24.6425 11.262 24.3966 11.0396 24.1763 10.9255C24.0675 10.869 23.9663 10.8397 23.892 10.8244C23.8548 10.8167 23.824 10.8125 23.802 10.8102C23.7923 10.8092 23.7842 10.8086 23.778 10.8082ZM21.7546 13.1077C21.755 13.1088 21.7554 13.1101 21.7559 13.1118C21.7591 13.1232 21.7624 13.142 21.7644 13.17C21.7683 13.2259 21.7662 13.3055 21.7572 13.4096C21.7393 13.6171 21.6954 13.9082 21.6278 14.2728C21.4929 15.0011 21.2659 16.0129 20.9733 17.2144C20.3881 19.6168 19.5417 22.7724 18.6486 25.9247C17.7555 29.077 16.816 32.225 16.0446 34.6122C15.6588 35.8061 15.3155 36.8084 15.0413 37.5256C14.9041 37.8845 14.7849 38.17 14.687 38.3718C14.6379 38.4729 14.5952 38.5507 14.5594 38.6055C14.5414 38.6329 14.5263 38.6528 14.5141 38.6663C14.5048 38.6767 14.4993 38.681 14.4976 38.6822C14.4969 38.6827 14.4969 38.6827 14.4975 38.6824C14.4101 38.7264 14.2412 38.7518 13.992 38.7497C13.7479 38.7476 13.4429 38.7195 13.0958 38.6696C12.4019 38.5698 11.5486 38.3839 10.6959 38.1506C9.84317 37.9173 8.99394 37.6373 8.30796 37.3502C7.96489 37.2066 7.66442 37.0619 7.42543 36.9213C7.18427 36.7794 7.01418 36.6464 6.92334 36.5289C6.91428 36.5171 6.89901 36.4828 6.88881 36.4091C6.8791 36.339 6.87553 36.2459 6.87879 36.1294C6.88529 35.8968 6.91862 35.5827 6.97634 35.1972C7.09168 34.4268 7.30274 33.382 7.583 32.1554C8.1434 29.7029 8.97883 26.5312 9.87303 23.3914C10.7672 20.2516 11.7198 17.1453 12.5141 14.8237C12.9114 13.6625 13.2686 12.6995 13.5586 12.0272C13.7038 11.6905 13.8308 11.43 13.9365 11.2545C13.9895 11.1664 14.0349 11.1037 14.072 11.0642C14.1036 11.0305 14.1191 11.0245 14.1201 11.0236C14.3715 11.0208 14.9337 11.1124 15.6581 11.2655C16.3813 11.4184 17.2543 11.6297 18.1138 11.8595C18.9734 12.0892 19.818 12.337 20.4846 12.5624C20.8181 12.6752 21.1057 12.7819 21.3278 12.8775C21.5474 12.9721 21.6903 13.0507 21.7546 13.1077Z" fill="white" stroke="white" stroke-width="0.2" stroke-linejoin="round"/>
<g id="Vector_4">
<path d="M44.0033 55.624C43.7542 55.44 43.4511 55.3804 43.1587 55.4237C42.8664 55.467 42.5957 55.6186 42.4116 55.8622L40.4194 58.5637H40.4248C40.2407 58.8127 40.1758 59.1213 40.2191 59.4082C40.2624 59.6951 40.414 59.9658 40.6576 60.1499L40.6955 60.1824C40.9337 60.3448 41.226 60.3989 41.5021 60.3556C41.7945 60.3123 42.0652 60.1607 42.2492 59.9171L44.2469 57.2102C44.4309 56.9612 44.4905 56.658 44.4472 56.3657C44.3984 56.0788 44.2469 55.8081 44.0033 55.624ZM29.4894 39.7457C30.4422 40.4495 31.0269 41.4781 31.1893 42.5662C31.2597 43.0318 31.2542 43.5082 31.1676 43.9738C31.5953 43.7572 32.0555 43.6111 32.5265 43.5407C33.6579 43.3729 34.8489 43.6273 35.8396 44.3581V44.3636C36.8358 45.0944 37.4367 46.1609 37.6045 47.2924C37.6749 47.7417 37.6695 48.2019 37.5991 48.6566C37.7344 48.6241 37.8644 48.5971 37.9997 48.5754C39.0229 48.4238 40.1056 48.6566 40.9989 49.3171L41.0638 49.3712C41.9246 50.0317 42.4497 50.9791 42.6013 51.9698C42.6501 52.2784 42.6609 52.5924 42.6338 52.9064C42.6825 52.8955 42.7258 52.8901 42.7746 52.8847C43.7057 52.744 44.7018 52.9605 45.5247 53.5668C46.353 54.1786 46.8511 55.061 46.9918 55.9976C47.1326 56.9287 46.916 57.9249 46.3043 58.7477L44.3066 61.4546C43.6949 62.2829 42.8125 62.7809 41.8759 62.9217C40.9447 63.0624 39.954 62.8459 39.1257 62.2396V62.245C38.3029 61.6386 37.7994 60.7508 37.6586 59.8088C37.6424 59.7005 37.6316 59.5923 37.6262 59.484C37.3988 59.5598 37.166 59.6193 36.9332 59.6518C35.9154 59.8034 34.8327 59.5706 33.934 58.9047C33.0353 58.2388 32.4886 57.2752 32.337 56.2574C32.3045 56.0517 32.2883 55.846 32.2937 55.6349C31.9526 55.7756 31.6007 55.8785 31.238 55.9326C30.1065 56.1004 28.9155 55.846 27.9248 55.1151C26.9341 54.3843 26.3278 53.3124 26.16 52.1809C26.0733 51.6233 26.095 51.0495 26.2303 50.4919C25.873 50.6543 25.4941 50.7625 25.1097 50.8221C24.0215 50.9845 22.8738 50.7355 21.921 50.0371C20.9682 49.3333 20.3835 48.3047 20.2211 47.2166C20.0587 46.1284 20.3078 44.9807 21.0061 44.0279H21.0115L23.491 40.666C24.1948 39.7078 25.2234 39.1285 26.3061 38.9661C27.3834 38.7929 28.5312 39.0419 29.4894 39.7457ZM28.6394 42.9452C28.5745 42.5067 28.3417 42.0952 27.9681 41.8191V41.8137C27.5892 41.5376 27.129 41.4402 26.6851 41.5051C26.2412 41.5701 25.8297 41.8029 25.5536 42.1764L23.0742 45.5329H23.0796C22.7981 45.9119 22.7006 46.3775 22.7656 46.816C22.8305 47.2545 23.0633 47.6659 23.4369 47.942C23.8158 48.2235 24.2814 48.321 24.7199 48.256C25.1584 48.191 25.5699 47.9583 25.846 47.5847H25.8514L28.3308 44.2282H28.3254C28.6015 43.8493 28.7044 43.3837 28.6394 42.9452ZM35.0544 47.6713C34.984 47.1895 34.7296 46.7348 34.3182 46.4316V46.437C33.9013 46.1284 33.3924 46.0201 32.9106 46.0905C32.4234 46.1663 31.974 46.4153 31.6655 46.8268L29.0452 50.3782C28.7421 50.795 28.6338 51.3039 28.7042 51.7857C28.7745 52.2676 29.029 52.7169 29.4404 53.0255C29.8573 53.334 30.3662 53.4423 30.848 53.3719C31.3352 53.3016 31.7846 53.0471 32.0931 52.6357L34.7134 49.0843C35.0219 48.6674 35.1302 48.1586 35.0544 47.6713ZM40.0513 52.3488C39.9971 51.9698 39.8022 51.6179 39.4828 51.3851V51.3905C39.158 51.1523 38.7628 51.0657 38.3893 51.1253C38.0157 51.1794 37.6638 51.3743 37.431 51.6991L37.3877 51.7532L35.1573 54.7795V54.7849C34.9191 55.1043 34.8379 55.4995 34.8974 55.8731C34.957 56.252 35.1519 56.6039 35.4713 56.8367C35.7907 57.0749 36.1859 57.1561 36.5648 57.0966C36.9438 57.037 37.2957 56.8421 37.5285 56.5227L39.8025 53.4423C40.0242 53.1229 40.1108 52.7277 40.0513 52.3488Z" fill="white"/>
<path d="M44.0033 55.624C43.7542 55.44 43.4511 55.3804 43.1587 55.4237C42.8664 55.467 42.5957 55.6186 42.4116 55.8622L40.4194 58.5637H40.4248C40.2407 58.8127 40.1758 59.1213 40.2191 59.4082C40.2624 59.6951 40.414 59.9658 40.6576 60.1499L40.6955 60.1824C40.9337 60.3448 41.226 60.3989 41.5021 60.3556C41.7945 60.3123 42.0652 60.1607 42.2492 59.9171L44.2469 57.2102C44.4309 56.9612 44.4905 56.658 44.4472 56.3657C44.3984 56.0788 44.2469 55.8081 44.0033 55.624ZM29.4894 39.7457C30.4422 40.4495 31.0269 41.4781 31.1893 42.5662C31.2597 43.0318 31.2542 43.5082 31.1676 43.9738C31.5953 43.7572 32.0555 43.6111 32.5265 43.5407C33.6579 43.3729 34.8489 43.6273 35.8396 44.3581V44.3636C36.8358 45.0944 37.4367 46.1609 37.6045 47.2924C37.6749 47.7417 37.6695 48.2019 37.5991 48.6566C37.7344 48.6241 37.8644 48.5971 37.9997 48.5754C39.0229 48.4238 40.1056 48.6566 40.9989 49.3171L41.0638 49.3712C41.9246 50.0317 42.4497 50.9791 42.6013 51.9698C42.6501 52.2784 42.6609 52.5924 42.6338 52.9064C42.6825 52.8955 42.7258 52.8901 42.7746 52.8847C43.7057 52.744 44.7018 52.9605 45.5247 53.5668C46.353 54.1786 46.8511 55.061 46.9918 55.9976C47.1326 56.9287 46.916 57.9249 46.3043 58.7477L44.3066 61.4546C43.6949 62.2829 42.8125 62.7809 41.8759 62.9217C40.9447 63.0624 39.954 62.8459 39.1257 62.2396V62.245C38.3029 61.6386 37.7994 60.7508 37.6586 59.8088C37.6424 59.7005 37.6316 59.5923 37.6262 59.484C37.3988 59.5598 37.166 59.6193 36.9332 59.6518C35.9154 59.8034 34.8327 59.5706 33.934 58.9047C33.0353 58.2388 32.4886 57.2752 32.337 56.2574C32.3045 56.0517 32.2883 55.846 32.2937 55.6349C31.9526 55.7756 31.6007 55.8785 31.238 55.9326C30.1065 56.1004 28.9155 55.846 27.9248 55.1151C26.9341 54.3843 26.3278 53.3124 26.16 52.1809C26.0733 51.6233 26.095 51.0495 26.2303 50.4919C25.873 50.6543 25.4941 50.7625 25.1097 50.8221C24.0215 50.9845 22.8738 50.7355 21.921 50.0371C20.9682 49.3333 20.3835 48.3047 20.2211 47.2166C20.0587 46.1284 20.3078 44.9807 21.0061 44.0279H21.0115L23.491 40.666C24.1948 39.7078 25.2234 39.1285 26.3061 38.9661C27.3834 38.7929 28.5312 39.0419 29.4894 39.7457ZM28.6394 42.9452C28.5745 42.5067 28.3417 42.0952 27.9681 41.8191V41.8137C27.5892 41.5376 27.129 41.4402 26.6851 41.5051C26.2412 41.5701 25.8297 41.8029 25.5536 42.1764L23.0742 45.5329H23.0796C22.7981 45.9119 22.7006 46.3775 22.7656 46.816C22.8305 47.2545 23.0633 47.6659 23.4369 47.942C23.8158 48.2235 24.2814 48.321 24.7199 48.256C25.1584 48.191 25.5699 47.9583 25.846 47.5847H25.8514L28.3308 44.2282H28.3254C28.6015 43.8493 28.7044 43.3837 28.6394 42.9452ZM35.0544 47.6713C34.984 47.1895 34.7296 46.7348 34.3182 46.4316V46.437C33.9013 46.1284 33.3924 46.0201 32.9106 46.0905C32.4234 46.1663 31.974 46.4153 31.6655 46.8268L29.0452 50.3782C28.7421 50.795 28.6338 51.3039 28.7042 51.7857C28.7745 52.2676 29.029 52.7169 29.4404 53.0255C29.8573 53.334 30.3662 53.4423 30.848 53.3719C31.3352 53.3016 31.7846 53.0471 32.0931 52.6357L34.7134 49.0843C35.0219 48.6674 35.1302 48.1586 35.0544 47.6713ZM40.0513 52.3488C39.9971 51.9698 39.8022 51.6179 39.4828 51.3851V51.3905C39.158 51.1523 38.7628 51.0657 38.3893 51.1253C38.0157 51.1794 37.6638 51.3743 37.431 51.6991L37.3877 51.7532L35.1573 54.7795V54.7849C34.9191 55.1043 34.8379 55.4995 34.8974 55.8731C34.957 56.252 35.1519 56.6039 35.4713 56.8367C35.7907 57.0749 36.1859 57.1561 36.5648 57.0966C36.9438 57.037 37.2957 56.8421 37.5285 56.5227L39.8025 53.4423C40.0242 53.1229 40.1108 52.7277 40.0513 52.3488Z" stroke="white"/>
</g>
</g>
</g>
</svg>
