<svg width="90" height="70" viewBox="0 0 90 70" fill="none" xmlns="http://www.w3.org/2000/svg">
<g id="Group 2148">
<rect id="Rectangle 143" width="90" height="70" fill="black"/>
<g id="Group 2147">
<g id="&#240;&#159;&#166;&#134; icon &#34;heart&#34;">
<path id="Vector" d="M55.9696 45.8541C56.4911 43.9789 56.8227 42.056 56.9593 40.1144C57.1917 36.6392 56.7514 32.4744 54.1027 29.6145C53.6044 29.0765 52.6938 28.4187 51.5885 28.1943C50.4893 27.9723 49.1901 28.1767 47.8947 29.3765L47.8908 29.3801C47.2292 29.9876 46.7176 30.7406 46.3965 31.5795C46.0754 32.4185 45.9536 33.3206 46.0405 34.2146L46.1997 35.8517L44.5797 35.5667C44.31 35.5192 44.0275 35.4905 43.742 35.4822L55.9696 45.8541ZM55.9696 45.8541C55.9531 45.9123 55.9364 45.9703 55.9194 46.0283L55.8666 46.0765L55.8957 46.1084C55.8941 46.1138 55.8924 46.1192 55.8908 46.1246L55.8555 46.0868C55.7518 46.1837 55.6693 46.2607 55.6039 46.3217C55.5456 46.334 55.4873 46.3458 55.4288 46.3573L55.4279 46.3575C53.5176 46.7339 51.5743 46.9172 49.6274 46.9045C46.1425 46.8708 42.0252 46.113 39.3765 43.2532C38.8783 42.7152 38.2922 41.757 38.153 40.6378C38.0158 39.5248 38.319 38.245 39.6145 37.0452C40.9124 35.8432 42.4268 35.4443 43.7418 35.4822L55.9696 45.8541Z" fill="#F5F5F5" stroke="#F5F5F5" stroke-width="2.5"/>
</g>
<g id="Group 2134">
<path id="Vector_2" d="M45.6769 63.1484L45.6768 63.1482L16.1017 33.5951L16.1017 33.595C14.9175 32.4123 14.2515 30.8078 14.25 29.1342L14.25 10.5625C14.25 8.88833 14.9151 7.28272 16.0989 6.09889C17.2827 4.91507 18.8883 4.25 20.5625 4.25H39.1343C40.8079 4.2515 42.4124 4.91753 43.595 6.10167L43.5951 6.10178L73.1483 35.6549L73.1486 35.6553C73.7371 36.2417 74.2041 36.9386 74.5227 37.7059C74.8413 38.4732 75.0053 39.2958 75.0053 40.1266C75.0053 40.9574 74.8413 41.7801 74.5227 42.5474C74.2041 43.3147 73.7371 44.0115 73.1486 44.598L73.1483 44.5983L54.5983 63.1483L54.5982 63.1484C53.4155 64.3325 51.8111 64.9986 50.1376 65.0001C48.464 64.9986 46.8596 64.3325 45.6769 63.1484ZM18.125 29.1344L18.125 29.1354C18.1263 29.4579 18.1917 29.777 18.3172 30.074C18.4425 30.3707 18.6254 30.6396 18.8553 30.8651C18.8556 30.8654 18.8559 30.8658 18.8563 30.8661L48.4076 60.4175L48.4082 60.418C48.8649 60.872 49.4827 61.1268 50.1266 61.1268C50.7706 61.1268 51.3884 60.872 51.8451 60.418L51.8456 60.4175L70.4175 41.8456L70.418 41.8451C70.872 41.3884 71.1268 40.7706 71.1268 40.1266C71.1268 39.4827 70.872 38.8649 70.418 38.4082L70.4175 38.4076L40.8661 8.85626C40.8658 8.85594 40.8654 8.85562 40.8651 8.8553C40.6396 8.62543 40.3707 8.44254 40.074 8.31719C39.777 8.19167 39.458 8.12635 39.1355 8.12501H39.1344H20.5625C19.916 8.12501 19.2961 8.38181 18.8389 8.83893C18.3818 9.29605 18.125 9.91604 18.125 10.5625L18.125 29.1344Z" fill="#F5F5F5" stroke="black" stroke-width="0.5"/>
</g>
<circle id="Ellipse 67" cx="31.625" cy="20.625" r="6.75" stroke="#F5F5F5" stroke-width="2.5"/>
</g>
</g>
</svg>
