<svg width="142" height="149" viewBox="0 0 142 149" fill="none" xmlns="http://www.w3.org/2000/svg">
<rect x="12" y="33" width="90" height="70" fill="white"/>
<g opacity="0.95" filter="url(#filter0_ddd_519_837)">
<mask id="path-2-inside-1_519_837" fill="white">
<path fill-rule="evenodd" clip-rule="evenodd" d="M95.9225 64.0135C95.9741 63.362 96.0004 62.7035 96.0004 62.0388C96.0004 48.4103 84.9523 37.3623 71.3239 37.3623C57.6955 37.3623 46.6475 48.4103 46.6475 62.0388C46.6475 75.6672 57.6955 86.7152 71.3239 86.7152C71.9886 86.7152 72.6472 86.6889 73.2986 86.6374L95.9225 64.0135Z"/>
</mask>
<path fill-rule="evenodd" clip-rule="evenodd" d="M95.9225 64.0135C95.9741 63.362 96.0004 62.7035 96.0004 62.0388C96.0004 48.4103 84.9523 37.3623 71.3239 37.3623C57.6955 37.3623 46.6475 48.4103 46.6475 62.0388C46.6475 75.6672 57.6955 86.7152 71.3239 86.7152C71.9886 86.7152 72.6472 86.6889 73.2986 86.6374L95.9225 64.0135Z" fill="white"/>
<path d="M95.9225 64.0135L99.458 67.549L100.761 66.2457L100.907 64.4082L95.9225 64.0135ZM73.2986 86.6374L73.6933 91.6218L75.5308 91.4763L76.8342 90.1729L73.2986 86.6374ZM91.0004 62.0388C91.0004 62.5716 90.9793 63.0985 90.9381 63.6188L100.907 64.4082C100.969 63.6255 101 62.8353 101 62.0388H91.0004ZM71.3239 42.3623C82.1909 42.3623 91.0004 51.1718 91.0004 62.0388H101C101 45.6489 87.7138 32.3623 71.3239 32.3623V42.3623ZM51.6475 62.0388C51.6475 51.1718 60.4569 42.3623 71.3239 42.3623V32.3623C54.9341 32.3623 41.6475 45.6489 41.6475 62.0388H51.6475ZM71.3239 81.7152C60.4569 81.7152 51.6475 72.9058 51.6475 62.0388H41.6475C41.6475 78.4286 54.9341 91.7152 71.3239 91.7152V81.7152ZM72.904 81.653C72.3837 81.6942 71.8568 81.7152 71.3239 81.7152V91.7152C72.1205 91.7152 72.9107 91.6837 73.6933 91.6218L72.904 81.653ZM76.8342 90.1729L99.458 67.549L92.387 60.478L69.7631 83.1018L76.8342 90.1729Z" fill="#16284E" mask="url(#path-2-inside-1_519_837)"/>
</g>
<mask id="path-4-inside-2_519_837" fill="white">
<path fill-rule="evenodd" clip-rule="evenodd" d="M95.7744 63.7886L73.0742 86.4888C70.2948 77.5846 70.7337 70.1008 75.0601 65.7744C79.3865 61.448 86.8703 61.0092 95.7744 63.7886Z"/>
</mask>
<path fill-rule="evenodd" clip-rule="evenodd" d="M95.7744 63.7886L73.0742 86.4888C70.2948 77.5846 70.7337 70.1008 75.0601 65.7744C79.3865 61.448 86.8703 61.0092 95.7744 63.7886Z" fill="white" fill-opacity="0.6"/>
<path d="M95.7744 63.7886L99.31 67.3241L105.155 61.4789L97.2643 59.0157L95.7744 63.7886ZM73.0742 86.4888L68.3014 87.9786L70.7645 95.8696L76.6098 90.0243L73.0742 86.4888ZM92.2389 60.253L69.5387 82.9532L76.6098 90.0243L99.31 67.3241L92.2389 60.253ZM77.8471 84.9989C75.2154 76.5682 76.3279 71.5777 78.5956 69.3099L71.5245 62.2389C65.1394 68.624 65.3742 78.6011 68.3014 87.9786L77.8471 84.9989ZM78.5956 69.3099C80.8633 67.0422 85.8538 65.9298 94.2846 68.5615L97.2643 59.0157C87.8868 56.0885 77.9096 55.8538 71.5245 62.2389L78.5956 69.3099Z" fill="#16284E" mask="url(#path-4-inside-2_519_837)"/>
<path d="M22.0029 62.1034C22.0029 60.7227 23.1222 59.6034 24.5029 59.6034H53.1627C54.5434 59.6034 55.6627 60.7227 55.6627 62.1034V91.457C55.6627 93.3684 53.605 94.5727 51.9385 93.6367L42.5055 88.3388C40.2246 87.0577 37.441 87.0577 35.1601 88.3388L25.7272 93.6367L26.9514 95.8165L25.7272 93.6367C24.0607 94.5727 22.0029 93.3683 22.0029 91.457V62.1034Z" fill="#FEFEFE" stroke="#16284E" stroke-width="5"/>
<path d="M23.21 70.6079H54.4555" stroke="#16284E" stroke-width="5" stroke-linecap="round" stroke-dasharray="10 10"/>
<defs>
<filter id="filter0_ddd_519_837" x="0.647461" y="0.362305" width="141.353" height="148.353" filterUnits="userSpaceOnUse" color-interpolation-filters="sRGB">
<feFlood flood-opacity="0" result="BackgroundImageFix"/>
<feColorMatrix in="SourceAlpha" type="matrix" values="0 0 0 0 0 0 0 0 0 0 0 0 0 0 0 0 0 0 127 0" result="hardAlpha"/>
<feOffset dy="11"/>
<feGaussianBlur stdDeviation="7.5"/>
<feColorMatrix type="matrix" values="0 0 0 0 0 0 0 0 0 0 0 0 0 0 0 0 0 0 0.2 0"/>
<feBlend mode="normal" in2="BackgroundImageFix" result="effect1_dropShadow_519_837"/>
<feColorMatrix in="SourceAlpha" type="matrix" values="0 0 0 0 0 0 0 0 0 0 0 0 0 0 0 0 0 0 127 0" result="hardAlpha"/>
<feOffset dy="9"/>
<feGaussianBlur stdDeviation="23"/>
<feColorMatrix type="matrix" values="0 0 0 0 0 0 0 0 0 0 0 0 0 0 0 0 0 0 0.12 0"/>
<feBlend mode="normal" in2="effect1_dropShadow_519_837" result="effect2_dropShadow_519_837"/>
<feColorMatrix in="SourceAlpha" type="matrix" values="0 0 0 0 0 0 0 0 0 0 0 0 0 0 0 0 0 0 127 0" result="hardAlpha"/>
<feOffset dy="24"/>
<feGaussianBlur stdDeviation="19"/>
<feColorMatrix type="matrix" values="0 0 0 0 0 0 0 0 0 0 0 0 0 0 0 0 0 0 0.14 0"/>
<feBlend mode="normal" in2="effect2_dropShadow_519_837" result="effect3_dropShadow_519_837"/>
<feBlend mode="normal" in="SourceGraphic" in2="effect3_dropShadow_519_837" result="shape"/>
</filter>
</defs>
</svg>


