<svg width="90" height="70" viewBox="0 0 90 70" fill="none" xmlns="http://www.w3.org/2000/svg">
<g id="Group 2149">
<rect id="Rectangle 144" width="90" height="70" fill="black"/>
<g id="&#240;&#159;&#166;&#134; icon &#34;hands holding heart&#34;">
<path id="Vector" d="M75.9355 30.6912L75.8865 28.6523C75.8537 25.3456 75.7147 22.6359 75.4529 20.1205C75.3299 18.8152 75.1451 17.6489 74.8935 16.5076L74.9293 16.7013C74.7808 15.7812 74.4318 14.9627 73.928 14.2631L73.9395 14.28C73.75 14.0444 73.4968 13.8673 73.2061 13.7738L73.1952 13.7708C72.5591 13.5066 71.8204 13.3531 71.0458 13.3531C69.9342 13.3531 68.8964 13.6692 68.0174 14.2163L68.0417 14.2022C66.5803 15.3359 65.5995 17.0289 65.4219 18.9547L65.4199 18.9813L64.3542 29.4679C63.7422 29.1435 63.0162 28.9529 62.2457 28.9529C60.4432 28.9529 58.8843 29.9957 58.1393 31.511L58.1274 31.5378L54.8717 37.178L48.6876 43.082C48.5804 43.183 48.4886 43.2988 48.4153 43.4266L48.4115 43.4338L46.6702 46.4486L45.7694 45.9287C45.7351 45.9095 45.6965 45.9097 45.6614 45.8933C45.4681 45.7985 45.2406 45.7428 45.0001 45.7428C44.76 45.7428 44.5329 45.7982 44.3308 45.8969L44.3398 45.893C44.3038 45.9096 44.2645 45.909 44.2293 45.9287L43.3284 46.4487L41.5872 43.4336C41.51 43.2986 41.4184 43.1828 41.3119 43.0825L41.3111 43.0818L35.1269 37.1781L31.8712 31.5377C31.2356 30.3552 30.1697 29.4731 28.888 29.0928L28.8526 29.0838C28.5171 28.9915 28.1319 28.9383 27.7343 28.9383C26.9681 28.9383 26.2481 29.1354 25.622 29.4817L25.6445 29.4704L24.581 19.0059C24.4067 17.0442 23.424 15.3416 21.9725 14.2137L21.9572 14.2021C21.1023 13.6694 20.0643 13.3537 18.9526 13.3537C18.1782 13.3537 17.4396 13.5068 16.7656 13.7847L16.8038 13.7707C16.5024 13.8678 16.2493 14.0449 16.0617 14.277L16.0594 14.28C15.5562 14.9848 15.2003 15.829 15.0554 16.7436L15.051 16.777C14.8403 17.7081 14.6618 18.8497 14.5543 20.012L14.546 20.1226C14.2864 22.6297 14.1495 25.3394 14.1126 28.6502C14.1041 29.3373 14.0839 30.0244 14.0635 30.7116C14.023 31.3701 14 32.1398 14 32.9149C14 34.3822 14.0825 35.8303 14.243 37.2547L14.227 37.08C14.9763 42.2749 17.5429 46.7648 21.2497 49.972L21.2761 49.9942C23.4702 51.7327 25.4035 53.6292 27.1212 55.7103L27.1734 55.7753L25.9223 56.4974C25.4497 56.7747 25.1373 57.2804 25.1373 57.8589C25.1373 58.1482 25.2155 58.4194 25.3518 58.6523L25.3478 58.6448L28.7098 64.469C28.9179 64.8257 29.2529 65.0889 29.6518 65.1985L29.6628 65.2012C29.7827 65.2347 29.9204 65.2542 30.0626 65.2542H30.0703H30.0739C30.3616 65.2542 30.631 65.1767 30.8628 65.0415L30.8552 65.0454L44.9965 56.8796L59.1457 65.0455C59.3716 65.1754 59.6421 65.2526 59.9305 65.2541C60.509 65.2528 61.0147 64.9408 61.2889 64.4762L61.2929 64.4688L64.6549 58.6446C64.7855 58.4188 64.8626 58.1478 64.8626 57.8588C64.8626 57.715 64.8436 57.5758 64.8078 57.4433L64.8104 57.4544C64.6989 57.0431 64.4356 56.7064 64.0856 56.5014L64.0783 56.4973L62.8264 55.7747C64.6121 53.6145 66.5617 51.7048 68.6934 50.0146L68.7737 49.9531C72.4811 46.7273 75.0294 42.2538 75.7624 37.1926L75.7757 37.0802C75.9185 35.8341 76 34.39 76 32.9268C76 32.1404 75.9764 31.3595 75.93 30.5847L75.9355 30.6912ZM23.2723 47.5727C20.1466 44.8246 17.9926 41.0372 17.3519 36.755L17.3397 36.6565C17.2125 35.5325 17.14 34.2296 17.14 32.9097C17.14 32.1702 17.1627 31.4361 17.2076 30.708L17.2027 30.8078C17.2252 30.1002 17.2457 29.3926 17.2538 28.685C17.2886 25.4723 17.4213 22.8546 17.671 20.4436C17.776 19.2828 17.9393 18.2402 18.1642 17.2207L18.1332 17.3884C18.1884 17.145 18.2538 16.8485 18.3356 16.6072C18.5445 16.5417 18.7847 16.5038 19.0339 16.5038C19.4654 16.5038 19.8704 16.6173 20.2208 16.816L20.2089 16.8097C20.9083 17.4307 21.3711 18.3048 21.4534 19.2869L21.4543 19.3005L22.9492 34.0001C22.9739 34.2335 23.0461 34.4457 23.1557 34.6333L23.1518 34.6258L29.89 46.2967C30.1637 46.7809 30.6753 47.1025 31.2618 47.1025C32.1292 47.1025 32.8324 46.3993 32.8324 45.5319C32.8324 45.2344 32.7497 44.9562 32.606 44.7191L32.6099 44.7261L26.7141 34.5153C26.0515 33.3661 26.4442 32.593 27.0331 32.2537C27.6119 31.9081 28.4852 31.9551 29.1518 33.1085L32.52 38.9429C32.5983 39.0773 32.6899 39.1929 32.7955 39.2941L38.9802 45.2005L40.6088 48.0191L29.9047 54.1985C27.9397 51.712 25.7615 49.5359 23.3552 47.6357L23.2723 47.5727ZM59.3546 61.5362L45.7921 53.7078C45.7688 53.6947 45.7427 53.6958 45.719 53.684C45.5803 53.6103 45.4188 53.5558 45.2482 53.5291L45.2395 53.528L45.1264 53.5196C45.0885 53.5164 45.0443 53.5144 44.9997 53.5144C44.8773 53.5144 44.7581 53.5287 44.6438 53.5555L44.6543 53.5534C44.6041 53.5649 44.559 53.5838 44.5101 53.6002C44.4027 53.6244 44.3092 53.6557 44.22 53.6951L44.23 53.6912L30.6449 61.5356L28.8535 58.4354L44.9999 49.1144L61.1463 58.4355L59.3546 61.5362ZM72.6595 36.6586C72.0126 41.0176 69.8776 44.7887 66.7969 47.5155L66.7779 47.532C64.2693 49.507 62.0741 51.6961 60.156 54.115L60.0932 54.1968L49.3908 48.0189L51.0191 45.2005L57.2033 39.2945C57.3106 39.1931 57.4029 39.0773 57.4775 38.95L57.4814 38.9427L60.8516 33.1083C61.0815 32.6448 61.4748 32.2914 61.9545 32.1187L61.9683 32.1144C62.0661 32.0891 62.1783 32.0745 62.2941 32.0745C62.5414 32.0745 62.7732 32.141 62.9726 32.2571L62.9661 32.2535C63.2676 32.4258 63.4909 32.7057 63.5856 33.0397L63.5878 33.049C63.6094 33.1587 63.6218 33.2849 63.6218 33.4139C63.6218 33.8248 63.496 34.2063 63.2807 34.522L63.2852 34.5152L57.3874 44.7258C57.2554 44.9511 57.1774 45.2219 57.1774 45.5109C57.1774 46.0901 57.4905 46.5962 57.9566 46.8691L57.964 46.8731C58.1876 46.9996 58.455 47.0741 58.7399 47.0741C59.3197 47.0741 59.8272 46.7655 60.1073 46.3035L60.1112 46.2963L66.8516 34.6254C66.9576 34.4455 67.0291 34.233 67.0514 34.0061L67.0519 33.9997L68.5446 19.284C68.6325 18.2941 69.0952 17.4266 69.7881 16.813L69.792 16.8096C70.1323 16.6198 70.5387 16.5082 70.971 16.5082C71.2169 16.5082 71.4544 16.5443 71.6784 16.6116L71.6611 16.607C71.7351 16.829 71.8113 17.1172 71.8725 17.4111L71.882 17.4661C72.0678 18.2952 72.2254 19.3129 72.3204 20.3487L72.3277 20.4477C72.5813 22.8608 72.7122 25.4784 72.7449 28.687C72.7533 29.3864 72.7736 30.0879 72.7981 30.7873C72.8372 31.4129 72.8595 32.1442 72.8595 32.8807C72.8595 34.2114 72.7867 35.5252 72.6451 36.8183L72.6595 36.6586ZM43.5426 31.5235C43.8307 31.843 44.2461 32.0429 44.7082 32.0429C45.1703 32.0429 45.5858 31.843 45.8726 31.5249L45.8738 31.5236L56.3116 19.957C58.3169 18.2588 59.5813 15.7394 59.5813 12.9248C59.5813 10.4532 58.6064 8.20939 57.0202 6.55689L57.0232 6.56003C55.4006 4.97663 53.1797 4 50.7307 4C48.4079 4 46.2902 4.8786 44.6921 6.3217L44.7 6.31469C43.1952 5.08494 41.2525 4.3397 39.1357 4.3397C39.0487 4.3397 38.9619 4.34101 38.8753 4.34363L38.8881 4.3433C36.5176 4.43983 34.3991 5.44466 32.8567 7.01674L32.8554 7.01818C31.1984 8.62762 30.1701 10.8767 30.1701 13.3659C30.1701 15.9644 31.2906 18.3012 33.0748 19.9196L33.0822 19.9261L43.5426 31.5235ZM35.0761 9.23903C36.1106 8.17052 37.5491 7.49858 39.1446 7.47018L39.1498 7.47005C40.9159 7.52763 42.4892 8.30657 43.5932 9.52016L43.5978 9.52527C43.8818 9.80954 44.2745 9.98532 44.7082 9.98532C45.1419 9.98532 45.5345 9.80954 45.8187 9.52527C46.934 8.0598 48.6793 7.12334 50.6433 7.12334C52.2558 7.12334 53.721 7.75452 54.8049 8.78331L54.8023 8.78082C55.8295 9.86189 56.4612 11.3273 56.4612 12.9402C56.4612 14.9044 55.5243 16.6498 54.0728 17.7536L54.0579 17.7645L54.0047 17.8238L44.7081 28.1267L35.3584 17.7645C34.1039 16.6206 33.3193 14.9796 33.3175 13.1555C33.3885 11.6143 34.048 10.2393 35.0749 9.24021L35.0761 9.23903Z" fill="#FFFDFD"/>
</g>
</g>
</svg>
