<svg width="84" height="56" viewBox="0 0 84 56" fill="none" xmlns="http://www.w3.org/2000/svg">
<rect width="84" height="56" fill="#F5F5F5"/>
<g id="Frame 353">
<g id="Group 2133">
<g id="Group 2108" filter="url(#filter0_d_4_13)">
<g id="Group 2101" filter="url(#filter1_d_4_13)">
<rect id="Rectangle 56" x="-61" y="-29" width="203" height="161.969" rx="15" fill="#3D799E"/>
</g>
<rect id="Rectangle 131" x="-52.2783" y="-22.0743" width="186.658" height="149.105" rx="14" stroke="white" stroke-width="2"/>
</g>
<g id="&#240;&#159;&#166;&#134; icon &#34;handshake&#34;">
<g id="Group">
<path id="Vector" fill-rule="evenodd" clip-rule="evenodd" d="M58.5054 38.4806C59.7126 39.6824 60.6383 41.2199 62.0676 40.4728C62.6198 40.1859 63.2098 39.7744 63.7187 39.2872C64.5633 38.4806 65.581 37.138 64.769 36.0661C61.9593 33.3646 56.5618 28.8225 56.5456 28.8117L58.2509 26.879C58.2563 26.8844 59.4148 27.9022 60.9199 29.3206C62.8796 31.1721 65.6243 32.9748 66.9507 34.8263C67.6978 35.8658 67.5408 37.701 67.1456 38.7783C66.8316 39.6445 66.2199 40.462 65.4944 41.1549C64.8123 41.81 64.0057 42.373 63.2477 42.7628C62.4844 43.158 61.7157 43.3854 61.0606 43.3908C61.039 43.4936 61.0119 43.6019 60.9848 43.7048C60.7683 44.4356 60.3027 45.0744 59.718 45.5996C59.1929 46.0706 58.5595 46.4603 57.9261 46.7419C57.2331 47.045 56.5077 47.2183 55.8581 47.2291C55.8364 47.4402 55.7931 47.6459 55.7335 47.8517C55.517 48.5825 55.0514 49.2213 54.4667 49.7465C53.9416 50.2174 53.3082 50.6072 52.6748 50.8887C51.7436 51.3002 50.7475 51.468 49.968 51.3327C49.9409 51.6088 49.8868 51.874 49.811 52.1231V52.1285C49.5782 52.8918 49.1342 53.536 48.5658 54.0124C47.9974 54.4888 47.3044 54.7974 46.5682 54.9003C45.6749 55.0248 44.7275 54.8461 43.883 54.294C43.6502 54.1424 43.3957 53.9475 43.098 53.7093L42.9302 53.5793L40.4128 51.6358L41.9828 49.6003L44.5001 51.5438L44.668 51.6737C44.9007 51.8524 45.0956 52.0094 45.2959 52.1339C45.5883 52.3288 45.9131 52.3883 46.2163 52.3504C46.4707 52.3125 46.7089 52.2043 46.9092 52.0364C47.1041 51.874 47.2611 51.6467 47.3423 51.3814C47.4452 51.0295 47.4289 50.591 47.2395 50.0821C45.0902 47.0829 40.5969 43.4449 40.586 43.4341L42.2101 41.4364C42.221 41.4419 44.04 42.9198 45.9889 44.8254C46.5086 45.3343 47.0825 45.8973 47.6834 46.4333C47.7917 46.5307 47.9053 46.6282 48.0136 46.7256C48.0353 46.7473 48.0623 46.7689 48.084 46.7906C48.2248 46.9151 48.3655 47.045 48.5063 47.1749C48.9827 47.6026 49.4537 48.0357 49.9463 48.4147C50.531 48.8315 50.5202 48.9182 51.186 48.7178C51.3268 48.6745 51.4784 48.5987 51.6408 48.5284C52.0414 48.3551 52.4312 48.1115 52.7452 47.83C52.9996 47.5972 53.1945 47.3536 53.2649 47.1154C53.319 46.9259 53.2811 46.6985 53.0971 46.4441C50.937 43.4395 44.9982 38.2207 44.9819 38.2045L46.6873 36.2718C46.6981 36.2826 50.0004 39.1843 52.691 42.0211C53.4219 42.7411 54.51 43.7264 55.295 44.3382C55.582 44.5439 55.7823 44.8092 56.2154 44.6576C56.3994 44.5926 56.6322 44.5006 56.8921 44.3869C57.2927 44.2137 57.6825 43.97 57.9965 43.6885C58.2509 43.4612 58.4458 43.2121 58.5162 42.9739C58.5703 42.7844 58.5324 42.5571 58.3484 42.2972C56.1883 39.2926 50.2495 34.0738 50.2332 34.0576L51.9385 32.1249C51.944 32.1249 55.739 35.4651 58.5054 38.4806Z" fill="white"/>
<path id="Vector_2" fill-rule="evenodd" clip-rule="evenodd" d="M82.802 29.3584L74.833 1.22891L74.4865 0L73.2576 0.335649L63.0582 3.13453L61.8023 3.481L62.1542 4.72615L62.636 6.42605C57.742 6.86997 52.9725 5.82513 48.5225 4.85608C39.6657 2.92339 31.9891 1.25056 26.0611 10.6975C24.4586 13.2581 22.71 16.3006 22.304 18.6285C21.7464 21.7955 22.9861 23.8256 27.9992 22.9053C31.0796 22.3423 32.9798 20.794 34.7501 19.3485C36.7531 17.7136 38.5559 16.2465 42.0531 17.2859C43.8884 18.0438 44.0562 18.1142 45.4908 19.3215C50.2603 23.3222 61.5965 33.2022 61.7319 33.3158L64.0814 35.3839L64.7365 35.9577L65.5106 35.5625L70.2206 33.1697L70.5075 34.182L71.7418 33.8301L81.9141 30.9501L83.1539 30.5982L82.802 29.3584ZM65.1209 32.8665L63.4264 31.3778H63.421C63.3885 31.3507 51.7761 21.2271 47.1366 17.34C45.3988 15.8838 45.2039 15.8026 42.9951 14.8876L42.941 14.866L42.8219 14.8227C38.0037 13.3664 35.692 15.2558 33.1259 17.3509C31.5993 18.596 29.9698 19.9278 27.539 20.3717C25.2653 20.7886 24.6589 20.1389 24.8484 19.067C25.1841 17.156 26.7757 14.4058 28.2428 12.0617V12.0563C33.1963 4.14689 40.0609 5.64107 47.9757 7.36803C52.756 8.40746 57.8882 9.52809 63.3506 8.93259L69.5005 30.6415L65.1209 32.8665ZM72.2778 30.9988L64.9909 5.26775L72.7054 3.15099L79.976 28.8173L72.2778 30.9988Z" fill="white"/>
<path id="Vector_3" fill-rule="evenodd" clip-rule="evenodd" d="M20.9943 4.72074L20.48 6.52891C22.7862 6.57763 27.1551 6.53974 30.7931 5.71686L31.3561 8.22881C27.0793 9.19786 21.9254 9.15455 19.76 9.08417L14.0106 29.3801C16.1923 30.0676 20.3013 31.8542 20.6316 35.6329L18.0601 35.8549C17.8598 33.5649 14.9634 32.3576 13.3069 31.8487L12.9983 32.9369L12.6464 34.1766L11.4121 33.8247L1.23973 30.9447L0 30.5928L0.351889 29.3584L8.32084 1.22891L8.66732 0L9.89623 0.335649L20.0956 3.13453L21.3516 3.481L20.9943 4.72074ZM10.8761 30.9988L18.1629 5.26752L10.4484 3.15077L3.17784 28.8171L10.8761 30.9988Z" fill="white"/>
<path id="Vector_4" fill-rule="evenodd" clip-rule="evenodd" d="M40.3371 47.9111C40.0881 47.7271 39.7849 47.6675 39.4925 47.7108C39.2002 47.7541 38.9295 47.9057 38.7455 48.1493L36.7532 50.8508H36.7586C36.5746 51.0998 36.5096 51.4084 36.5529 51.6953C36.5962 51.9822 36.7478 52.2529 36.9914 52.437L37.0293 52.4695C37.2675 52.6319 37.5599 52.686 37.836 52.6427C38.1283 52.5994 38.399 52.4478 38.583 52.2042L40.5807 49.4974C40.7648 49.2483 40.8243 48.9452 40.781 48.6528C40.7323 48.3659 40.5807 48.0952 40.3371 47.9111ZM25.8232 32.0328C26.776 32.7366 27.3607 33.7652 27.5231 34.8533C27.5935 35.3189 27.5881 35.7953 27.5014 36.2609C27.9291 36.0443 28.3893 35.8982 28.8603 35.8278C29.9917 35.66 31.1828 35.9144 32.1735 36.6453V36.6507C33.1696 37.3815 33.7705 38.448 33.9383 39.5795C34.0087 40.0288 34.0033 40.489 33.9329 40.9437C34.0683 40.9112 34.1982 40.8842 34.3335 40.8625C35.3567 40.7109 36.4395 40.9437 37.3327 41.6042L37.3977 41.6583C38.2585 42.3188 38.7836 43.2662 38.9352 44.2569C38.9839 44.5655 38.9947 44.8795 38.9676 45.1935C39.0164 45.1826 39.0597 45.1772 39.1084 45.1718C40.0396 45.0311 41.0357 45.2476 41.8586 45.8539C42.6869 46.4657 43.1849 47.3481 43.3257 48.2847C43.4664 49.2158 43.2499 50.212 42.6381 51.0348L40.6405 53.7417C40.0287 54.57 39.1463 55.068 38.2097 55.2088C37.2786 55.3496 36.2879 55.133 35.4596 54.5267V54.5321C34.6367 53.9258 34.1332 53.0379 33.9925 52.0959C33.9762 51.9877 33.9654 51.8794 33.96 51.7711C33.7326 51.8469 33.4998 51.9065 33.267 51.9389C32.2493 52.0905 31.1665 51.8577 30.2678 51.1918C29.3692 50.526 28.8224 49.5623 28.6708 48.5445C28.6383 48.3388 28.6221 48.1331 28.6275 47.922C28.2864 48.0627 27.9345 48.1656 27.5718 48.2197C26.4404 48.3876 25.2494 48.1331 24.2586 47.4023C23.2679 46.6714 22.6616 45.5995 22.4938 44.468C22.4072 43.9104 22.4288 43.3366 22.5642 42.779C22.2069 42.9414 21.8279 43.0497 21.4435 43.1092C20.3554 43.2716 19.2077 43.0226 18.2549 42.3242C17.3021 41.6204 16.7174 40.5918 16.555 39.5037C16.3926 38.4155 16.6416 37.2678 17.34 36.315H17.3454L19.8248 32.9531C20.5286 31.9949 21.5572 31.4156 22.64 31.2532C23.7173 31.08 24.865 31.329 25.8232 32.0328ZM24.9733 35.2323C24.9083 34.7938 24.6755 34.3823 24.302 34.1062V34.1008C23.923 33.8247 23.4628 33.7273 23.0189 33.7922C22.575 33.8572 22.1636 34.09 21.8875 34.4635L19.408 37.82H19.4134C19.1319 38.199 19.0344 38.6646 19.0994 39.1031C19.1644 39.5416 19.3972 39.953 19.7707 40.2291C20.1497 40.5106 20.6152 40.6081 21.0537 40.5431C21.4923 40.4781 21.9037 40.2454 22.1798 39.8718H22.1852L24.6647 36.5153H24.6593C24.9354 36.1364 25.0382 35.6708 24.9733 35.2323ZM31.3883 39.9584C31.3179 39.4766 31.0634 39.0219 30.652 38.7187V38.7241C30.2351 38.4155 29.7262 38.3073 29.2444 38.3776C28.7572 38.4534 28.3079 38.7025 27.9993 39.1139L25.3791 42.6653C25.0759 43.0821 24.9676 43.591 25.038 44.0728C25.1084 44.5547 25.3628 45.004 25.7743 45.3126C26.1911 45.6212 26.7 45.7294 27.1818 45.659C27.669 45.5887 28.1184 45.3342 28.427 44.9228L31.0472 41.3714C31.3558 40.9546 31.464 40.4457 31.3883 39.9584ZM36.3851 44.6359C36.331 44.2569 36.1361 43.905 35.8167 43.6722V43.6776C35.4918 43.4394 35.0966 43.3528 34.7231 43.4124C34.3495 43.4665 33.9977 43.6614 33.7649 43.9862L33.7216 44.0404L31.4911 47.0666V47.072C31.2529 47.3914 31.1717 47.7866 31.2313 48.1602C31.2908 48.5391 31.4857 48.891 31.8051 49.1238C32.1245 49.362 32.5197 49.4432 32.8987 49.3837C33.2776 49.3241 33.6295 49.1292 33.8623 48.8098L36.1363 45.7294C36.358 45.41 36.4446 45.0148 36.3851 44.6359Z" fill="white"/>
</g>
</g>
</g>
</g>
<defs>
<filter id="filter0_d_4_13" x="-65" y="-29" width="211" height="169.969" filterUnits="userSpaceOnUse" color-interpolation-filters="sRGB">
<feFlood flood-opacity="0" result="BackgroundImageFix"/>
<feColorMatrix in="SourceAlpha" type="matrix" values="0 0 0 0 0 0 0 0 0 0 0 0 0 0 0 0 0 0 127 0" result="hardAlpha"/>
<feOffset dy="4"/>
<feGaussianBlur stdDeviation="2"/>
<feComposite in2="hardAlpha" operator="out"/>
<feColorMatrix type="matrix" values="0 0 0 0 0 0 0 0 0 0 0 0 0 0 0 0 0 0 0.25 0"/>
<feBlend mode="normal" in2="BackgroundImageFix" result="effect1_dropShadow_4_13"/>
<feBlend mode="normal" in="SourceGraphic" in2="effect1_dropShadow_4_13" result="shape"/>
</filter>
<filter id="filter1_d_4_13" x="-65" y="-29" width="211" height="169.969" filterUnits="userSpaceOnUse" color-interpolation-filters="sRGB">
<feFlood flood-opacity="0" result="BackgroundImageFix"/>
<feColorMatrix in="SourceAlpha" type="matrix" values="0 0 0 0 0 0 0 0 0 0 0 0 0 0 0 0 0 0 127 0" result="hardAlpha"/>
<feOffset dy="4"/>
<feGaussianBlur stdDeviation="2"/>
<feComposite in2="hardAlpha" operator="out"/>
<feColorMatrix type="matrix" values="0 0 0 0 0 0 0 0 0 0 0 0 0 0 0 0 0 0 0.25 0"/>
<feBlend mode="normal" in2="BackgroundImageFix" result="effect1_dropShadow_4_13"/>
<feBlend mode="normal" in="SourceGraphic" in2="effect1_dropShadow_4_13" result="shape"/>
</filter>
</defs>
</svg>
