<svg width="90" height="70" viewBox="0 0 90 70" fill="none" xmlns="http://www.w3.org/2000/svg">
<g id="Group 2150">
<rect id="Rectangle 145" width="90" height="70" fill="black"/>
<g id="&#240;&#159;&#166;&#134; icon &#34;help customer support 1&#34;">
<g id="Clip path group">
<mask id="mask0_360_149" style="mask-type:luminance" maskUnits="userSpaceOnUse" x="14" y="4" width="62" height="62">
<g id="a">
<path id="Vector" d="M14 4H76V66H14V4Z" fill="white"/>
</g>
</mask>
<g mask="url(#mask0_360_149)">
<g id="Group">
<path id="Vector_2" d="M27.2847 35.0001V23.3529C27.3193 21.0635 27.8052 18.8034 28.7148 16.7021C29.6244 14.6008 30.9397 12.6997 32.5852 11.1076C34.2308 9.51549 36.1744 8.26373 38.3045 7.42406C40.4347 6.58439 42.7096 6.1733 44.999 6.21434C47.2883 6.1733 49.5632 6.58439 51.6934 7.42406C53.8235 8.26373 55.7671 9.51549 57.4127 11.1076C59.0583 12.6997 60.3736 14.6008 61.2833 16.7021C62.1924 18.8034 62.6787 21.0635 62.7132 23.3529V35.0001" stroke="#F5F5F5" stroke-width="3" stroke-linecap="round" stroke-linejoin="round"/>
<path id="Vector_3" d="M20.642 28.3572H25.0705C25.6578 28.3572 26.221 28.5905 26.6362 29.0057C27.0515 29.421 27.2848 29.9842 27.2848 30.5715V43.8572C27.2848 44.4444 27.0515 45.0077 26.6362 45.4229C26.221 45.8382 25.6578 46.0715 25.0705 46.0715H20.642C19.4674 46.0715 18.341 45.6049 17.5105 44.7744C16.68 43.9438 16.2134 42.8174 16.2134 41.6429V32.7857C16.2134 31.6112 16.68 30.4848 17.5105 29.6543C18.341 28.8238 19.4674 28.3572 20.642 28.3572Z" stroke="#F5F5F5" stroke-width="3" stroke-linecap="round" stroke-linejoin="round"/>
<path id="Vector_4" d="M69.3567 46.0715H64.9282C64.3409 46.0715 63.7776 45.8382 63.3622 45.4229C62.9473 45.0077 62.7139 44.4444 62.7139 43.8572V30.5715C62.7139 29.9842 62.9473 29.421 63.3622 29.0057C63.7776 28.5905 64.3409 28.3572 64.9282 28.3572H69.3567C70.5312 28.3572 71.6578 28.8238 72.4882 29.6543C73.3185 30.4848 73.7853 31.6112 73.7853 32.7857V41.6429C73.7853 42.8174 73.3185 43.9438 72.4882 44.7744C71.6578 45.6049 70.5312 46.0715 69.3567 46.0715Z" stroke="#F5F5F5" stroke-width="3" stroke-linecap="round" stroke-linejoin="round"/>
<path id="Vector_5" d="M53.8569 58.2501C56.206 58.2501 58.4587 57.317 60.1198 55.6559C61.781 53.9947 62.7141 51.7419 62.7141 49.393V39.4287" stroke="#F5F5F5" stroke-width="3" stroke-linecap="round" stroke-linejoin="round"/>
<path id="Vector_6" d="M53.8559 58.2501C53.8559 59.7181 53.2726 61.1264 52.2345 62.1645C51.1964 63.2025 49.7883 63.7858 48.3202 63.7858H41.6773C40.2092 63.7858 38.8011 63.2025 37.763 62.1645C36.7248 61.1264 36.1416 59.7181 36.1416 58.2501C36.1416 56.782 36.7248 55.3737 37.763 54.3357C38.8011 53.2976 40.2092 52.7144 41.6773 52.7144H48.3202C49.7883 52.7144 51.1964 53.2976 52.2345 54.3357C53.2726 55.3737 53.8559 56.782 53.8559 58.2501Z" stroke="#F5F5F5" stroke-width="3" stroke-linecap="round" stroke-linejoin="round"/>
</g>
</g>
</g>
</g>
</g>
</svg>
