<svg width="70" height="64" viewBox="0 0 70 64" fill="none" xmlns="http://www.w3.org/2000/svg">
<g id="&#240;&#159;&#166;&#134; icon &#34;move ruler&#34;">
<path id="Vector" d="M44.7602 61H25.0402C24.0792 61 23.3002 60.2211 23.3002 59.26V4.74C23.3002 3.77903 24.0792 3 25.0402 3H44.7602C45.7212 3 46.5002 3.77903 46.5002 4.74V59.26C46.5002 60.2211 45.7212 61 44.7602 61Z" fill="white" stroke="#16284E" stroke-width="6" stroke-linecap="round" stroke-linejoin="round"/>
<g id="Vector_2">
<path d="M46.5003 46.5H37.8003H46.5003Z" fill="white"/>
<path d="M46.5003 46.5H37.8003" stroke="#16284E" stroke-width="6" stroke-linecap="round" stroke-linejoin="round"/>
</g>
<g id="Vector_3">
<path d="M46.5003 17.5H37.8003H46.5003Z" fill="white"/>
<path d="M46.5003 17.5H37.8003" stroke="#16284E" stroke-width="6" stroke-linecap="round" stroke-linejoin="round"/>
</g>
<g id="Vector_4">
<path d="M37.8003 32H66.8003H37.8003ZM66.8003 32L61.0003 37.8L66.8003 32ZM66.8003 32L61.0003 26.2L66.8003 32Z" fill="white"/>
<path d="M37.8003 32H66.8003M66.8003 32L61.0003 37.8M66.8003 32L61.0003 26.2" stroke="#16284E" stroke-width="6" stroke-linecap="round" stroke-linejoin="round"/>
</g>
<g id="Vector_5">
<path d="M3 32L8.8 26.2L3 32ZM3 32L8.8 37.8L3 32ZM3 32H23.3H3Z" fill="white"/>
<path d="M3 32L8.8 26.2M3 32L8.8 37.8M3 32H23.3" stroke="#16284E" stroke-width="6" stroke-linecap="round" stroke-linejoin="round"/>
</g>
</g>
</svg>
