<svg width="78" height="78" viewBox="0 0 78 78" fill="none" xmlns="http://www.w3.org/2000/svg">
<path d="M64.594 39C66.6122 39 68.2502 40.664 68.2502 42.7147V61.2852C68.2502 63.336 66.6122 65 64.594 65H13.0002C12.1383 65 11.3116 64.6576 10.7021 64.0481C10.0927 63.4386 9.75024 62.612 9.75024 61.75V42.7147C9.75024 40.664 11.3882 39 13.4065 39H64.594Z" stroke="#16284E" stroke-width="6" stroke-linecap="round" stroke-linejoin="round"/>
<path d="M29.2498 39V45.5" stroke="#16284E" stroke-width="6" stroke-linecap="round" stroke-linejoin="round"/>
<path d="M19.5005 39V48.75" stroke="#16284E" stroke-width="6" stroke-linecap="round" stroke-linejoin="round"/>
<path d="M39 39V48.75" stroke="#16284E" stroke-width="6" stroke-linecap="round" stroke-linejoin="round"/>
<path d="M58.5005 39V48.75" stroke="#16284E" stroke-width="6" stroke-linecap="round" stroke-linejoin="round"/>
<path d="M48.7502 39V45.5" stroke="#16284E" stroke-width="6" stroke-linecap="round" stroke-linejoin="round"/>
<path d="M9.75024 9.75V22.75" stroke="#16284E" stroke-width="6" stroke-linecap="round" stroke-linejoin="round"/>
<path d="M9.75024 16.25H68.2502" stroke="#16284E" stroke-width="6" stroke-linecap="round" stroke-linejoin="round"/>
<path d="M68.2498 9.75V22.75" stroke="#16284E" stroke-width="6" stroke-linecap="round" stroke-linejoin="round"/>
</svg>
