<svg width="59" height="72" viewBox="0 0 59 72" fill="none" xmlns="http://www.w3.org/2000/svg">
<path d="M34.2668 3.10645C32.941 -0.94073 26.0115 -1.12917 24.5087 3.10645C16.6993 25.2914 0 31.32 0 46.9561C0 60.7992 13.1443 72 29.3878 72C45.6312 72 58.7755 60.7992 58.7755 46.9561C58.7755 31.2413 42.113 25.3927 34.2668 3.10645ZM29.3878 63C19.077 63 10.6865 55.9336 10.6865 47.25C10.6865 46.0069 11.882 45 13.3581 45C14.8341 45 16.0297 46.0069 16.0297 47.25C16.0297 53.453 22.0224 58.5 29.3878 58.5C30.8638 58.5 32.0594 59.5069 32.0594 60.75C32.0594 61.9931 30.8638 63 29.3878 63Z" fill="#16284E"/>
</svg>
